<svg width="462.377" height="212.405" viewBox="0 0 462.377 212.405" xmlns="http://www.w3.org/2000/svg"><g id="svgGroup" stroke-linecap="round" fill-rule="evenodd" font-size="9pt" stroke="currentColor" stroke-width="1mm" fill="currentColor" style="stroke:currentColor;stroke-width:1mm;fill:currentColor"><path d="M 193.876 87.079 A 1.792 1.792 0 0 0 193.786 87.16 C 155.847 123.672 132.316 139.256 119.75 136.202 A 13.883 13.883 0 0 1 111.369 129.448 C 108.845 125.422 107.035 120.104 105.17 114.62 A 420.074 420.074 0 0 0 103.894 110.908 C 99.847 99.369 94.677 87.83 81.342 86.279 C 83.254 85.402 85.379 84.392 87.719 83.231 A 279.922 279.922 0 0 0 91.044 81.555 C 105.065 74.371 128.202 61.062 160.736 37.767 A 938.537 938.537 0 0 0 168.539 32.118 C 169.3 31.562 169.487 30.511 168.981 29.73 A 1.795 1.795 0 0 0 168.923 29.645 A 1.76 1.76 0 0 0 167.91 28.97 C 167.422 28.853 166.887 28.942 166.45 29.262 A 870.459 870.459 0 0 1 143.334 45.625 C 118.705 62.442 100.017 73.12 87.042 79.645 A 226.338 226.338 0 0 1 77.892 84.009 A 1147.239 1147.239 0 0 0 87.195 68.075 A 2773.782 2773.782 0 0 0 104.888 36.624 C 111.053 25.547 116.92 15.008 122.035 6.297 A 473.033 473.033 0 0 1 124.18 2.68 A 1.764 1.764 0 0 0 124.417 1.998 C 124.501 1.35 124.22 0.683 123.647 0.3 A 1.799 1.799 0 0 0 123.571 0.252 C 122.732 -0.251 121.646 0.023 121.143 0.861 C 116.403 8.773 110.914 18.538 105.074 29.016 A 11292.251 11292.251 0 0 0 101.795 34.903 C 93.034 50.642 82.911 68.828 72.294 86.388 A 145.596 145.596 0 0 1 71.409 86.735 A 120.829 120.829 0 0 1 71.127 86.844 C 69.6 87.144 67.996 87.539 66.313 88.035 A 52.59 52.59 0 0 0 65.923 88.153 C 65.013 88.432 64.301 88.69 63.825 89.073 A 1.725 1.725 0 0 0 63.164 90.271 A 1.71 1.71 0 0 0 63.159 90.313 C 63.154 90.368 63.151 90.423 63.151 90.478 A 1.822 1.822 0 0 0 64.04 92.035 C 64.539 92.326 65.107 92.647 69.372 91.183 A 604.383 604.383 0 0 1 57.713 109.473 C 37.725 139.527 17.387 162.795 2.061 160.243 C 1.101 160.082 0.185 160.734 0.024 161.697 A 1.779 1.779 0 0 0 0 161.991 A 1.771 1.771 0 0 0 1.479 163.734 A 17.639 17.639 0 0 0 4.392 163.973 C 16.44 163.973 31.159 152.132 49.173 127.954 A 314.731 314.731 0 0 0 53.216 122.399 A 478.016 478.016 0 0 0 68.454 99.471 A 728.02 728.02 0 0 0 74.34 89.924 C 92.254 87.686 96.92 101.359 101.821 115.762 A 1093.105 1093.105 0 0 0 102.256 117.041 C 103.884 121.804 105.584 126.568 107.898 130.519 A 17.707 17.707 0 0 0 118.916 139.643 C 120.18 139.95 121.52 140.105 122.948 140.105 C 135.253 140.104 153.772 128.574 181.202 103.774 A 663.448 663.448 0 0 0 196.241 89.712 A 1.765 1.765 0 0 0 196.748 88.787 C 196.851 88.274 196.726 87.723 196.369 87.298 A 1.795 1.795 0 0 0 196.288 87.208 C 195.639 86.533 194.582 86.485 193.876 87.079 Z M 338.478 88.844 C 338.132 87.929 337.108 87.469 336.198 87.813 A 302.533 302.533 0 0 0 308.121 100.053 C 299.308 104.444 291.19 109.042 283.736 113.715 A 278.668 278.668 0 0 0 283.382 113.938 A 355.534 355.534 0 0 0 286.092 108.875 C 294.782 92.299 293.708 90.447 292.634 89.401 A 11.357 11.357 0 0 0 292.522 89.294 A 2.191 2.191 0 0 0 290.968 88.664 C 290.21 88.664 289.334 89.008 288.344 89.695 A 10.495 10.495 0 0 0 288.137 89.843 A 178.751 178.751 0 0 0 280.891 95.521 A 677.287 677.287 0 0 0 277.402 98.404 A 546.334 546.334 0 0 1 273.026 102.013 A 92.393 92.393 0 0 1 256.068 113.503 A 12.677 12.677 0 0 1 255.826 113.622 C 254.922 114.054 253.354 114.672 252.385 114.318 A 1.16 1.16 0 0 1 251.761 113.805 C 249.897 110.62 254.258 99.616 265.231 91.72 A 43.036 43.036 0 0 1 266.357 90.936 A 1.763 1.763 0 0 0 267.082 89.914 C 267.205 89.441 267.133 88.919 266.839 88.481 C 266.312 87.698 265.27 87.469 264.468 87.946 A 1.803 1.803 0 0 0 264.382 88 A 46.834 46.834 0 0 0 257.916 93.233 C 249.566 101.329 246.01 110.986 248.706 115.593 A 4.953 4.953 0 0 0 248.979 116.01 C 249.967 117.366 252.426 119.302 257.656 116.667 A 106.227 106.227 0 0 0 277.558 102.873 A 1067.873 1067.873 0 0 0 279.664 101.128 A 768.1 768.1 0 0 1 282.72 98.598 A 191.348 191.348 0 0 1 289.385 93.324 A 35.309 35.309 0 0 1 288.322 96.127 C 286.792 99.767 284.117 105.149 280.572 111.697 A 459.261 459.261 0 0 1 277.081 118.023 A 272.272 272.272 0 0 0 271.721 121.695 C 255.661 132.981 243.318 144.267 234.297 153.735 A 201.467 201.467 0 0 0 220.371 169.939 C 208.252 185.722 202.081 199.258 202.081 206.357 A 11.392 11.392 0 0 0 202.094 206.903 A 9.196 9.196 0 0 0 202.256 208.263 C 202.797 210.973 204.472 211.897 205.557 212.211 A 4.543 4.543 0 0 0 205.631 212.232 A 5.045 5.045 0 0 0 206.726 212.399 A 5.85 5.85 0 0 0 206.994 212.405 A 13.557 13.557 0 0 0 213.873 209.795 C 224.009 203.275 239.422 184.793 257.446 157.179 C 264.082 146.968 271.05 135.587 277.053 125.197 A 591.782 591.782 0 0 0 279.732 120.51 A 278.237 278.237 0 0 1 302.417 106.98 C 310.999 102.395 320.304 97.987 330.363 93.901 A 306.408 306.408 0 0 1 337.449 91.125 A 1.771 1.771 0 0 0 338.592 89.469 C 338.592 89.261 338.556 89.05 338.478 88.844 Z M 197.301 109.602 L 198.174 108.947 A 282.919 282.919 0 0 1 201.189 106.71 C 207.741 101.917 210.995 100.041 212.608 99.339 A 14.501 14.501 0 0 1 212.363 99.83 C 212.214 100.113 212.035 100.436 211.819 100.804 A 31.954 31.954 0 0 1 211.548 101.257 A 771.609 771.609 0 0 0 209.297 104.977 C 203.275 115.001 201.569 118.629 202.747 120.67 A 2.825 2.825 0 0 0 203.178 121.231 A 2.63 2.63 0 0 0 204.803 122.045 A 3.588 3.588 0 0 0 205.246 122.071 A 7.449 7.449 0 0 0 207.501 121.636 C 210.448 120.676 215.157 118.082 223.245 113.419 C 235.049 106.63 252.886 96.371 267.397 91.133 A 1.769 1.769 0 0 0 268.568 89.468 C 268.568 89.382 268.562 89.296 268.549 89.209 A 1.779 1.779 0 0 0 268.462 88.868 C 268.173 88.067 267.364 87.604 266.555 87.716 A 1.77 1.77 0 0 0 266.197 87.804 A 137.744 137.744 0 0 0 256.796 91.637 C 244.288 97.235 230.958 104.901 221.48 110.352 A 1255.771 1255.771 0 0 1 219.668 111.395 C 214.913 114.126 208.618 117.668 206.097 118.384 A 13.159 13.159 0 0 1 206.679 116.923 C 207.976 114.077 210.772 109.366 213.205 105.348 A 1229.429 1229.429 0 0 1 214.572 103.099 A 46.637 46.637 0 0 0 214.632 103 C 216.252 100.33 217.494 97.66 215.832 96.1 A 2.811 2.811 0 0 0 215.798 96.069 C 215.516 95.813 215.197 95.618 214.815 95.505 A 1.771 1.771 0 0 0 216.23 93.773 A 1.785 1.785 0 0 0 216.22 93.579 C 215.827 89.972 214.592 87.116 212.653 85.223 A 8.906 8.906 0 0 0 209.441 83.204 C 204.861 81.543 198.957 83.564 193.053 88.763 A 41.001 41.001 0 0 0 191.712 89.998 A 130.952 130.952 0 0 0 185.459 96.47 C 177.605 105.224 174.085 112.103 175.708 115.715 A 3.757 3.757 0 0 0 176.268 116.606 C 179.767 120.747 189.238 115.287 195.588 110.832 A 97.357 97.357 0 0 0 197.301 109.602 Z M 460.403 87.607 A 1.762 1.762 0 0 0 459.908 87.74 A 276.539 276.539 0 0 0 446.207 94.075 C 438.887 97.707 432.752 101.162 427.544 104.227 A 685.789 685.789 0 0 0 420.991 108.145 C 417.624 110.175 414.717 111.929 412.12 113.336 C 400.967 119.484 394.255 119.675 391.217 117.565 A 4.588 4.588 0 0 1 390.069 116.436 C 387.616 112.943 389.281 105.692 395.443 97.486 A 60.424 60.424 0 0 1 400.436 91.682 C 413.367 94.008 422.29 89.863 425.861 84.459 A 11.396 11.396 0 0 0 426.748 82.855 C 427.242 81.757 427.485 80.68 427.485 79.682 A 4.9 4.9 0 0 0 425.509 75.608 A 4.772 4.772 0 0 0 425.261 75.436 C 422.984 73.967 416.576 72.497 402.299 85.037 C 401.222 85.983 400.192 86.94 399.208 87.905 C 398.454 87.973 397.799 88.522 397.634 89.301 A 1.641 1.641 0 0 0 397.614 89.416 A 1.863 1.863 0 0 0 397.601 89.532 A 67.507 67.507 0 0 0 394.951 92.464 C 387.293 101.462 383.868 110.542 386.129 116.492 A 8.968 8.968 0 0 0 387.174 118.47 C 388.251 120.003 390.742 122.333 395.919 122.332 C 400.004 122.332 405.763 120.88 413.818 116.441 A 126.58 126.58 0 0 0 417.484 114.365 C 418.724 113.639 420.029 112.857 421.411 112.025 A 2334.618 2334.618 0 0 0 422.821 111.175 C 430.106 106.781 439.605 101.051 452.481 94.97 A 275.259 275.259 0 0 1 461.308 90.991 C 462.042 90.675 462.453 89.918 462.365 89.161 A 1.768 1.768 0 0 0 462.233 88.667 C 461.916 87.931 461.16 87.518 460.403 87.607 Z M 244.283 170.295 A 495.958 495.958 0 0 0 254.479 155.248 A 732.154 732.154 0 0 0 264.321 139.674 A 688.6 688.6 0 0 0 273.039 125.096 A 261.353 261.353 0 0 0 260.569 134.488 C 255.593 138.476 251.087 142.392 247.032 146.152 A 230.549 230.549 0 0 0 236.858 156.178 C 213.515 180.676 205.315 200.19 205.628 206.734 C 205.665 207.488 205.796 208.044 206.021 208.396 A 0.921 0.921 0 0 0 206.557 208.816 A 1.807 1.807 0 0 0 207.023 208.871 C 210.435 208.871 222.029 201.797 244.283 170.295 Z M 401.166 88.69 A 1.769 1.769 0 0 0 400.063 87.767 C 399.664 87.653 399.224 87.678 398.821 87.868 A 1.805 1.805 0 0 0 398.798 87.879 A 70.321 70.321 0 0 1 398.743 87.906 C 384.363 94.942 369.982 95.885 361.735 95.689 A 77.177 77.177 0 0 1 360.003 95.628 A 75.482 75.482 0 0 1 356.66 95.402 A 69.949 69.949 0 0 1 355.601 95.297 A 10.003 10.003 0 0 0 355.644 94.377 A 8.991 8.991 0 0 0 355.473 92.617 A 10.722 10.722 0 0 0 348.876 84.803 A 15.466 15.466 0 0 0 345.884 83.877 C 341.813 83.043 336.452 83.638 334.541 86.394 A 3.634 3.634 0 0 0 333.967 87.694 C 333.915 87.932 333.89 88.174 333.89 88.418 A 3.469 3.469 0 0 0 333.894 88.583 C 326.111 96.361 320.302 104.521 318.242 110.611 C 316.829 114.748 317.196 117.718 319.334 119.438 A 6.192 6.192 0 0 0 322.554 120.701 A 9.765 9.765 0 0 0 323.701 120.766 A 14.36 14.36 0 0 0 326.345 120.497 C 331.05 119.609 336.175 116.755 338.315 115.467 A 47.219 47.219 0 0 0 338.428 115.399 A 51.061 51.061 0 0 0 350.68 105.239 C 352.068 103.6 353.23 101.916 354.08 100.231 A 17.431 17.431 0 0 0 354.739 98.767 C 356.377 98.951 358.08 99.084 359.842 99.166 A 80.156 80.156 0 0 0 361.642 99.229 C 370.247 99.433 385.294 98.445 400.357 91.059 C 401.227 90.631 401.59 89.584 401.176 88.711 A 1.807 1.807 0 0 0 401.166 88.69 Z M 196.048 106.12 L 195.199 106.757 A 92.276 92.276 0 0 1 191.707 109.205 C 183.161 114.892 179.632 114.812 179.028 114.373 A 0.315 0.315 0 0 1 178.972 114.322 A 0.781 0.781 0 0 1 178.819 113.94 C 178.514 112.072 181.254 105.082 194.172 92.544 C 198.446 88.43 202.725 86.175 206.086 86.175 A 6.558 6.558 0 0 1 207.663 86.359 A 5.656 5.656 0 0 1 208.235 86.533 A 5.784 5.784 0 0 1 211.175 89.031 C 211.962 90.301 212.483 91.968 212.701 93.964 C 212.774 94.626 213.202 95.163 213.775 95.404 A 7.272 7.272 0 0 0 211.598 95.961 C 209.194 96.912 205.538 99.161 199.677 103.43 A 295.537 295.537 0 0 0 196.048 106.12 Z M 332.839 114.437 A 49.532 49.532 0 0 0 336.594 112.371 A 52.996 52.996 0 0 0 344.27 106.723 C 346.566 104.679 348.545 102.508 349.94 100.382 A 17.175 17.175 0 0 0 351.137 98.264 A 57.999 57.999 0 0 1 349.019 97.869 C 342.855 96.596 338.127 94.511 335.611 91.88 A 99.803 99.803 0 0 0 332.595 95.101 C 328.693 99.46 325.506 103.819 323.454 107.604 A 27.054 27.054 0 0 0 321.593 111.749 C 320.942 113.654 320.784 115.156 321.119 116.048 A 1.441 1.441 0 0 0 321.553 116.68 C 322.917 117.778 327.142 117.244 332.839 114.437 Z M 408.488 84.505 A 81.131 81.131 0 0 0 404.634 87.696 A 79.734 79.734 0 0 0 404.135 88.138 A 72.315 72.315 0 0 0 403.645 88.58 A 36.15 36.15 0 0 0 405.391 88.736 C 414.859 89.35 420.697 85.827 422.934 82.455 A 7.408 7.408 0 0 0 423.519 81.403 A 5.213 5.213 0 0 0 423.834 80.492 C 424.028 79.686 423.98 78.88 423.404 78.454 C 422.041 77.447 417.298 77.682 408.488 84.505 Z M 337.948 89.19 A 5.875 5.875 0 0 0 338.127 89.388 C 340.094 91.471 344.857 93.651 352.099 94.83 A 6.467 6.467 0 0 0 352.111 94.435 A 5.768 5.768 0 0 0 352.004 93.315 A 7.321 7.321 0 0 0 351.698 92.234 C 350.314 88.495 346.269 87.467 344.215 87.185 A 12.875 12.875 0 0 0 343.484 87.106 A 14.843 14.843 0 0 0 343.048 87.078 C 340.671 86.961 338.915 87.457 338.038 87.933 A 3.199 3.199 0 0 0 337.848 88.045 C 338.009 88.407 338.041 88.81 337.948 89.19 Z"/></g></svg>